<svg viewBox="0 0 200 200" xmlns="http://www.w3.org/2000/svg">
  <path fill="#0F62FE" d="M37.6,-63.8C50.5,-57.6,63.9,-51.1,72.8,-40.4C81.8,-29.8,86.3,-14.9,87.6,0.8C88.9,16.4,87,32.8,78.9,44.8C70.7,56.9,56.3,64.7,42.1,67.8C27.9,70.9,13.9,69.4,-1.1,71.2C-16.1,73.1,-32.2,78.4,-43.4,73.5C-54.5,68.6,-60.8,53.7,-66.9,39.8C-73,25.8,-79,12.9,-78.6,0.2C-78.2,-12.5,-71.5,-24.9,-64.3,-37C-57.1,-49.1,-49.5,-60.7,-38.7,-68.1C-27.9,-75.5,-13.9,-78.6,-0.8,-77.2C12.3,-75.8,24.7,-70,37.6,-63.8Z" transform="translate(100 100)" />
</svg>