<?xml version="1.0" standalone="no"?>
<svg viewBox="0 0 200 200" xmlns="http://www.w3.org/2000/svg">
  <path fill="#FF0066" d="M32.4,-58.2C43.4,-49.7,54.8,-44,64.5,-34.7C74.2,-25.5,82.1,-12.8,84.7,1.5C87.3,15.8,84.7,31.6,76.7,43.7C68.6,55.8,55.3,64.2,41.6,72.4C28,80.6,14,88.4,1,86.6C-11.9,84.8,-23.8,73.3,-32.9,62.5C-42.1,51.8,-48.5,41.7,-54,31.4C-59.4,21.1,-63.9,10.6,-67.4,-2C-71,-14.7,-73.6,-29.3,-69.9,-42.7C-66.3,-56.2,-56.4,-68.4,-43.7,-76C-31,-83.6,-15.5,-86.5,-2.4,-82.3C10.7,-78.1,21.3,-66.7,32.4,-58.2Z" transform="translate(100 100)" />
</svg>
